<mxfile host="65bd71144e">
    <diagram name="第 1 页" id="Zavmjteh1IX9tXmuueel">
        <mxGraphModel dx="1241" dy="768" grid="1" gridSize="10" guides="1" tooltips="1" connect="1" arrows="1" fold="1" page="1" pageScale="1" pageWidth="827" pageHeight="1169" math="0" shadow="0">
            <root>
                <mxCell id="0"/>
                <mxCell id="1" parent="0"/>
                <mxCell id="53" value="" style="group" parent="1" vertex="1" connectable="0">
                    <mxGeometry x="290" y="130" width="1050" height="330" as="geometry"/>
                </mxCell>
                <mxCell id="19" value="&lt;span style=&quot;color: rgb(0, 0, 0); text-align: center;&quot;&gt;匹配结果&lt;/span&gt;" style="rounded=0;whiteSpace=wrap;html=1;align=right;verticalAlign=top;dashed=1;fillColor=#f5f5f5;fontColor=#333333;strokeColor=#666666;" parent="53" vertex="1">
                    <mxGeometry x="817" width="233" height="330" as="geometry"/>
                </mxCell>
                <mxCell id="38" value="" style="rounded=1;whiteSpace=wrap;html=1;align=right;verticalAlign=top;dashed=1;fillColor=#e1d5e7;strokeColor=#9673a6;" parent="53" vertex="1">
                    <mxGeometry x="980" y="77.5" width="60" height="65" as="geometry"/>
                </mxCell>
                <mxCell id="39" value="" style="rounded=1;whiteSpace=wrap;html=1;align=right;verticalAlign=top;dashed=1;fillColor=#d5e8d4;strokeColor=#82b366;" parent="53" vertex="1">
                    <mxGeometry x="980" y="142.5" width="60" height="120" as="geometry"/>
                </mxCell>
                <mxCell id="41" style="edgeStyle=none;html=1;exitX=1;exitY=0.5;exitDx=0;exitDy=0;entryX=0;entryY=0.5;entryDx=0;entryDy=0;fillColor=#d5e8d4;strokeColor=#82b366;" parent="53" source="37" target="39" edge="1">
                    <mxGeometry relative="1" as="geometry"/>
                </mxCell>
                <mxCell id="37" value="" style="rounded=1;whiteSpace=wrap;html=1;align=right;verticalAlign=top;dashed=1;fillColor=#d5e8d4;strokeColor=#82b366;" parent="53" vertex="1">
                    <mxGeometry x="830" y="140" width="60" height="180" as="geometry"/>
                </mxCell>
                <mxCell id="40" style="edgeStyle=none;html=1;entryX=0;entryY=0.5;entryDx=0;entryDy=0;fillColor=#e1d5e7;strokeColor=#9673a6;" parent="53" source="36" target="38" edge="1">
                    <mxGeometry relative="1" as="geometry"/>
                </mxCell>
                <mxCell id="36" value="" style="rounded=1;whiteSpace=wrap;html=1;align=right;verticalAlign=top;dashed=1;fillColor=#e1d5e7;strokeColor=#9673a6;" parent="53" vertex="1">
                    <mxGeometry x="830" y="20" width="60" height="120" as="geometry"/>
                </mxCell>
                <mxCell id="17" value="&lt;span style=&quot;color: rgb(0, 0, 0); text-align: center;&quot;&gt;对节点之间进行动态规划匹配&lt;/span&gt;" style="rounded=0;whiteSpace=wrap;html=1;align=right;verticalAlign=top;dashed=1;fillColor=#f5f5f5;fontColor=#333333;strokeColor=#666666;" parent="53" vertex="1">
                    <mxGeometry x="500" width="200" height="330" as="geometry"/>
                </mxCell>
                <mxCell id="13" value="节点间的shape" style="rounded=0;whiteSpace=wrap;html=1;align=right;verticalAlign=top;dashed=1;fillColor=#f5f5f5;fontColor=#333333;strokeColor=#666666;" parent="53" vertex="1">
                    <mxGeometry x="320" width="60" height="330" as="geometry"/>
                </mxCell>
                <mxCell id="12" value="节点间的shape" style="rounded=0;whiteSpace=wrap;html=1;align=right;verticalAlign=top;dashed=1;fillColor=#f5f5f5;fontColor=#333333;strokeColor=#666666;" parent="53" vertex="1">
                    <mxGeometry width="60" height="330" as="geometry"/>
                </mxCell>
                <mxCell id="8" value="两个网络按shape的所有匹配" style="rounded=0;whiteSpace=wrap;html=1;align=right;verticalAlign=top;dashed=1;fillColor=#f5f5f5;fontColor=#333333;strokeColor=#666666;" parent="53" vertex="1">
                    <mxGeometry x="80" width="220" height="330" as="geometry"/>
                </mxCell>
                <mxCell id="3DaxIcs7LCstp_3bDFIm-1" value="1/2" style="ellipse;whiteSpace=wrap;html=1;fillColor=#ffe6cc;strokeColor=#d79b00;" parent="53" vertex="1">
                    <mxGeometry x="90" y="30" width="40" height="40" as="geometry"/>
                </mxCell>
                <mxCell id="3DaxIcs7LCstp_3bDFIm-2" value="2/1" style="ellipse;whiteSpace=wrap;html=1;fillColor=#ffe6cc;strokeColor=#d79b00;" parent="53" vertex="1">
                    <mxGeometry x="90" y="90" width="40" height="40" as="geometry"/>
                </mxCell>
                <mxCell id="3DaxIcs7LCstp_3bDFIm-23" style="edgeStyle=orthogonalEdgeStyle;rounded=0;orthogonalLoop=1;jettySize=auto;html=1;" parent="53" source="3DaxIcs7LCstp_3bDFIm-1" target="3DaxIcs7LCstp_3bDFIm-2" edge="1">
                    <mxGeometry relative="1" as="geometry"/>
                </mxCell>
                <mxCell id="3DaxIcs7LCstp_3bDFIm-3" value="1/2" style="ellipse;whiteSpace=wrap;html=1;fillColor=#ffe6cc;strokeColor=#d79b00;" parent="53" vertex="1">
                    <mxGeometry x="90" y="150" width="40" height="40" as="geometry"/>
                </mxCell>
                <mxCell id="3DaxIcs7LCstp_3bDFIm-24" style="edgeStyle=orthogonalEdgeStyle;rounded=0;orthogonalLoop=1;jettySize=auto;html=1;" parent="53" source="3DaxIcs7LCstp_3bDFIm-2" target="3DaxIcs7LCstp_3bDFIm-3" edge="1">
                    <mxGeometry relative="1" as="geometry"/>
                </mxCell>
                <mxCell id="3DaxIcs7LCstp_3bDFIm-4" value="2/1" style="ellipse;whiteSpace=wrap;html=1;fillColor=#ffe6cc;strokeColor=#d79b00;" parent="53" vertex="1">
                    <mxGeometry x="90" y="210" width="40" height="40" as="geometry"/>
                </mxCell>
                <mxCell id="3DaxIcs7LCstp_3bDFIm-25" style="edgeStyle=orthogonalEdgeStyle;rounded=0;orthogonalLoop=1;jettySize=auto;html=1;" parent="53" source="3DaxIcs7LCstp_3bDFIm-3" target="3DaxIcs7LCstp_3bDFIm-4" edge="1">
                    <mxGeometry relative="1" as="geometry"/>
                </mxCell>
                <mxCell id="3DaxIcs7LCstp_3bDFIm-5" value="1/3" style="ellipse;whiteSpace=wrap;html=1;fillColor=#ffe6cc;strokeColor=#d79b00;" parent="53" vertex="1">
                    <mxGeometry x="90" y="270" width="40" height="40" as="geometry"/>
                </mxCell>
                <mxCell id="3DaxIcs7LCstp_3bDFIm-26" style="edgeStyle=orthogonalEdgeStyle;rounded=0;orthogonalLoop=1;jettySize=auto;html=1;" parent="53" source="3DaxIcs7LCstp_3bDFIm-4" target="3DaxIcs7LCstp_3bDFIm-5" edge="1">
                    <mxGeometry relative="1" as="geometry"/>
                </mxCell>
                <mxCell id="3DaxIcs7LCstp_3bDFIm-6" value="1/1" style="ellipse;whiteSpace=wrap;html=1;fillColor=#dae8fc;strokeColor=#6c8ebf;" parent="53" vertex="1">
                    <mxGeometry x="250" y="90" width="40" height="40" as="geometry"/>
                </mxCell>
                <mxCell id="3DaxIcs7LCstp_3bDFIm-7" value="1/3" style="ellipse;whiteSpace=wrap;html=1;fillColor=#dae8fc;strokeColor=#6c8ebf;" parent="53" vertex="1">
                    <mxGeometry x="250" y="150" width="40" height="40" as="geometry"/>
                </mxCell>
                <mxCell id="3DaxIcs7LCstp_3bDFIm-12" value="" style="endArrow=classic;html=1;rounded=0;fillColor=#d5e8d4;strokeColor=#82b366;" parent="53" source="3DaxIcs7LCstp_3bDFIm-1" target="3DaxIcs7LCstp_3bDFIm-6" edge="1">
                    <mxGeometry width="50" height="50" relative="1" as="geometry">
                        <mxPoint x="60" y="250" as="sourcePoint"/>
                        <mxPoint x="110" y="200" as="targetPoint"/>
                    </mxGeometry>
                </mxCell>
                <mxCell id="3DaxIcs7LCstp_3bDFIm-14" value="" style="endArrow=classic;html=1;rounded=0;fillColor=#d5e8d4;strokeColor=#82b366;" parent="53" source="3DaxIcs7LCstp_3bDFIm-1" target="3DaxIcs7LCstp_3bDFIm-7" edge="1">
                    <mxGeometry width="50" height="50" relative="1" as="geometry">
                        <mxPoint x="220" y="30" as="sourcePoint"/>
                        <mxPoint x="346" y="100" as="targetPoint"/>
                    </mxGeometry>
                </mxCell>
                <mxCell id="3DaxIcs7LCstp_3bDFIm-15" value="" style="endArrow=classic;html=1;rounded=0;fillColor=#d5e8d4;strokeColor=#82b366;" parent="53" source="3DaxIcs7LCstp_3bDFIm-3" target="3DaxIcs7LCstp_3bDFIm-6" edge="1">
                    <mxGeometry width="50" height="50" relative="1" as="geometry">
                        <mxPoint x="135" y="74" as="sourcePoint"/>
                        <mxPoint x="265" y="196" as="targetPoint"/>
                    </mxGeometry>
                </mxCell>
                <mxCell id="3DaxIcs7LCstp_3bDFIm-16" value="" style="endArrow=classic;html=1;rounded=0;fillColor=#d5e8d4;strokeColor=#82b366;entryX=0;entryY=0.5;entryDx=0;entryDy=0;" parent="53" source="3DaxIcs7LCstp_3bDFIm-3" target="3DaxIcs7LCstp_3bDFIm-7" edge="1">
                    <mxGeometry width="50" height="50" relative="1" as="geometry">
                        <mxPoint x="145" y="84" as="sourcePoint"/>
                        <mxPoint x="275" y="206" as="targetPoint"/>
                    </mxGeometry>
                </mxCell>
                <mxCell id="3DaxIcs7LCstp_3bDFIm-17" value="" style="endArrow=classic;html=1;rounded=0;fillColor=#d5e8d4;strokeColor=#82b366;" parent="53" source="3DaxIcs7LCstp_3bDFIm-5" target="3DaxIcs7LCstp_3bDFIm-6" edge="1">
                    <mxGeometry width="50" height="50" relative="1" as="geometry">
                        <mxPoint x="155" y="94" as="sourcePoint"/>
                        <mxPoint x="285" y="216" as="targetPoint"/>
                    </mxGeometry>
                </mxCell>
                <mxCell id="3DaxIcs7LCstp_3bDFIm-18" value="" style="endArrow=classic;html=1;rounded=0;fillColor=#d5e8d4;strokeColor=#82b366;" parent="53" source="3DaxIcs7LCstp_3bDFIm-5" target="3DaxIcs7LCstp_3bDFIm-7" edge="1">
                    <mxGeometry width="50" height="50" relative="1" as="geometry">
                        <mxPoint x="165" y="104" as="sourcePoint"/>
                        <mxPoint x="295" y="226" as="targetPoint"/>
                    </mxGeometry>
                </mxCell>
                <mxCell id="3DaxIcs7LCstp_3bDFIm-19" value="" style="endArrow=classic;html=1;rounded=0;fillColor=#e1d5e7;strokeColor=#9673a6;" parent="53" source="3DaxIcs7LCstp_3bDFIm-6" target="3DaxIcs7LCstp_3bDFIm-2" edge="1">
                    <mxGeometry width="50" height="50" relative="1" as="geometry">
                        <mxPoint x="175" y="114" as="sourcePoint"/>
                        <mxPoint x="305" y="236" as="targetPoint"/>
                    </mxGeometry>
                </mxCell>
                <mxCell id="3DaxIcs7LCstp_3bDFIm-27" style="edgeStyle=orthogonalEdgeStyle;rounded=0;orthogonalLoop=1;jettySize=auto;html=1;" parent="53" source="3DaxIcs7LCstp_3bDFIm-6" target="3DaxIcs7LCstp_3bDFIm-7" edge="1">
                    <mxGeometry relative="1" as="geometry"/>
                </mxCell>
                <mxCell id="3DaxIcs7LCstp_3bDFIm-21" value="" style="endArrow=classic;html=1;rounded=0;fillColor=#e1d5e7;strokeColor=#9673a6;" parent="53" source="3DaxIcs7LCstp_3bDFIm-6" target="3DaxIcs7LCstp_3bDFIm-4" edge="1">
                    <mxGeometry width="50" height="50" relative="1" as="geometry">
                        <mxPoint x="260" y="146" as="sourcePoint"/>
                        <mxPoint x="140" y="124" as="targetPoint"/>
                    </mxGeometry>
                </mxCell>
                <mxCell id="3DaxIcs7LCstp_3bDFIm-22" value="" style="endArrow=classic;html=1;rounded=0;fillColor=#e1d5e7;strokeColor=#9673a6;exitX=0.276;exitY=0.951;exitDx=0;exitDy=0;exitPerimeter=0;entryX=0.979;entryY=0.371;entryDx=0;entryDy=0;entryPerimeter=0;" parent="53" source="3DaxIcs7LCstp_3bDFIm-7" target="3DaxIcs7LCstp_3bDFIm-5" edge="1">
                    <mxGeometry width="50" height="50" relative="1" as="geometry">
                        <mxPoint x="270" y="156" as="sourcePoint"/>
                        <mxPoint x="120" y="290" as="targetPoint"/>
                    </mxGeometry>
                </mxCell>
                <mxCell id="43" style="edgeStyle=none;html=1;exitX=1;exitY=0.5;exitDx=0;exitDy=0;fontSize=7;fillColor=#f8cecc;strokeColor=#b85450;dashed=1;dashPattern=8 8;" parent="53" source="3DaxIcs7LCstp_3bDFIm-28" edge="1">
                    <mxGeometry relative="1" as="geometry">
                        <mxPoint x="110" y="75" as="targetPoint"/>
                    </mxGeometry>
                </mxCell>
                <mxCell id="3DaxIcs7LCstp_3bDFIm-28" value="2/2" style="ellipse;whiteSpace=wrap;html=1;fillColor=#fad9d5;strokeColor=#ae4132;" parent="53" vertex="1">
                    <mxGeometry x="10" y="55" width="40" height="40" as="geometry"/>
                </mxCell>
                <mxCell id="3DaxIcs7LCstp_3bDFIm-29" value="1/1" style="ellipse;whiteSpace=wrap;html=1;fillColor=#fad9d5;strokeColor=#ae4132;" parent="53" vertex="1">
                    <mxGeometry x="10" y="115" width="40" height="40" as="geometry"/>
                </mxCell>
                <mxCell id="3DaxIcs7LCstp_3bDFIm-30" value="2/2" style="ellipse;whiteSpace=wrap;html=1;fillColor=#fad9d5;strokeColor=#ae4132;" parent="53" vertex="1">
                    <mxGeometry x="10" y="175" width="40" height="40" as="geometry"/>
                </mxCell>
                <mxCell id="3DaxIcs7LCstp_3bDFIm-31" value="1/1" style="ellipse;whiteSpace=wrap;html=1;fillColor=#fad9d5;strokeColor=#ae4132;" parent="53" vertex="1">
                    <mxGeometry x="10" y="235" width="40" height="40" as="geometry"/>
                </mxCell>
                <mxCell id="51" style="edgeStyle=none;html=1;dashed=1;dashPattern=8 8;fontSize=7;fillColor=#b0e3e6;strokeColor=#0e8088;" parent="53" source="3DaxIcs7LCstp_3bDFIm-32" edge="1">
                    <mxGeometry relative="1" as="geometry">
                        <mxPoint x="270" y="135" as="targetPoint"/>
                    </mxGeometry>
                </mxCell>
                <mxCell id="3DaxIcs7LCstp_3bDFIm-32" value="1/1" style="ellipse;whiteSpace=wrap;html=1;fillColor=#b0e3e6;strokeColor=#0e8088;" parent="53" vertex="1">
                    <mxGeometry x="330" y="115" width="40" height="40" as="geometry"/>
                </mxCell>
                <mxCell id="3DaxIcs7LCstp_3bDFIm-37" value="1/1" style="ellipse;whiteSpace=wrap;html=1;fillColor=#b0e3e6;strokeColor=#0e8088;" parent="53" vertex="1">
                    <mxGeometry x="580" y="30" width="40" height="40" as="geometry"/>
                </mxCell>
                <mxCell id="3DaxIcs7LCstp_3bDFIm-38" value="3/3" style="ellipse;whiteSpace=wrap;html=1;fillColor=#b0e3e6;strokeColor=#0e8088;" parent="53" vertex="1">
                    <mxGeometry x="640" y="30" width="40" height="40" as="geometry"/>
                </mxCell>
                <mxCell id="3DaxIcs7LCstp_3bDFIm-39" value="2/2" style="ellipse;whiteSpace=wrap;html=1;fillColor=#fad9d5;strokeColor=#ae4132;" parent="53" vertex="1">
                    <mxGeometry x="520" y="90" width="40" height="40" as="geometry"/>
                </mxCell>
                <mxCell id="3DaxIcs7LCstp_3bDFIm-40" value="1/1" style="ellipse;whiteSpace=wrap;html=1;fillColor=#fad9d5;strokeColor=#ae4132;" parent="53" vertex="1">
                    <mxGeometry x="520" y="150" width="40" height="40" as="geometry"/>
                </mxCell>
                <mxCell id="3DaxIcs7LCstp_3bDFIm-41" value="2/2" style="ellipse;whiteSpace=wrap;html=1;fillColor=#fad9d5;strokeColor=#ae4132;" parent="53" vertex="1">
                    <mxGeometry x="520" y="210" width="40" height="40" as="geometry"/>
                </mxCell>
                <mxCell id="3DaxIcs7LCstp_3bDFIm-42" value="1/1" style="ellipse;whiteSpace=wrap;html=1;fillColor=#fad9d5;strokeColor=#ae4132;" parent="53" vertex="1">
                    <mxGeometry x="520" y="270" width="40" height="40" as="geometry"/>
                </mxCell>
                <mxCell id="3DaxIcs7LCstp_3bDFIm-44" value="" style="ellipse;whiteSpace=wrap;html=1;aspect=fixed;fillColor=#bac8d3;strokeColor=#23445d;" parent="53" vertex="1">
                    <mxGeometry x="590" y="160" width="20" height="20" as="geometry"/>
                </mxCell>
                <mxCell id="3DaxIcs7LCstp_3bDFIm-46" value="" style="shape=flexArrow;endArrow=classic;html=1;rounded=0;" parent="53" edge="1">
                    <mxGeometry width="50" height="50" relative="1" as="geometry">
                        <mxPoint x="404" y="169.86" as="sourcePoint"/>
                        <mxPoint x="484" y="169.86" as="targetPoint"/>
                    </mxGeometry>
                </mxCell>
                <mxCell id="2" value="3/3" style="ellipse;whiteSpace=wrap;html=1;fillColor=#dae8fc;strokeColor=#6c8ebf;" parent="53" vertex="1">
                    <mxGeometry x="250" y="210" width="40" height="40" as="geometry"/>
                </mxCell>
                <mxCell id="3" value="" style="edgeStyle=none;html=1;" parent="53" source="3DaxIcs7LCstp_3bDFIm-7" target="2" edge="1">
                    <mxGeometry relative="1" as="geometry"/>
                </mxCell>
                <mxCell id="4" value="" style="endArrow=classic;html=1;rounded=0;fillColor=#e1d5e7;strokeColor=#9673a6;exitX=0;exitY=0.5;exitDx=0;exitDy=0;entryX=0.993;entryY=0.606;entryDx=0;entryDy=0;entryPerimeter=0;" parent="53" source="2" target="3DaxIcs7LCstp_3bDFIm-5" edge="1">
                    <mxGeometry width="50" height="50" relative="1" as="geometry">
                        <mxPoint x="271.0400000000002" y="198.03999999999996" as="sourcePoint"/>
                        <mxPoint x="170" y="350" as="targetPoint"/>
                    </mxGeometry>
                </mxCell>
                <mxCell id="52" style="edgeStyle=none;html=1;dashed=1;dashPattern=8 8;fontSize=7;fillColor=#b0e3e6;strokeColor=#0e8088;" parent="53" source="6" edge="1">
                    <mxGeometry relative="1" as="geometry">
                        <mxPoint x="270" y="195" as="targetPoint"/>
                    </mxGeometry>
                </mxCell>
                <mxCell id="6" value="3/3" style="ellipse;whiteSpace=wrap;html=1;fillColor=#b0e3e6;strokeColor=#0e8088;" parent="53" vertex="1">
                    <mxGeometry x="330" y="175" width="40" height="40" as="geometry"/>
                </mxCell>
                <mxCell id="7" value="" style="verticalLabelPosition=bottom;verticalAlign=top;html=1;shape=mxgraph.basic.tick" parent="53" vertex="1">
                    <mxGeometry x="587.5" y="160" width="25" height="20" as="geometry"/>
                </mxCell>
                <mxCell id="10" value="节点shape表示：" style="text;html=1;strokeColor=none;fillColor=none;align=left;verticalAlign=middle;whiteSpace=wrap;rounded=0;dashed=1;" parent="53" vertex="1">
                    <mxGeometry x="153" y="285" width="97" height="30" as="geometry"/>
                </mxCell>
                <mxCell id="11" value="即相同输入或输出相匹配" style="text;html=1;strokeColor=none;fillColor=none;align=right;verticalAlign=middle;whiteSpace=wrap;rounded=0;dashed=1;" parent="53" vertex="1">
                    <mxGeometry x="120" y="20" width="180" height="30" as="geometry"/>
                </mxCell>
                <mxCell id="18" value="" style="shape=flexArrow;endArrow=classic;html=1;rounded=0;" parent="53" edge="1">
                    <mxGeometry width="50" height="50" relative="1" as="geometry">
                        <mxPoint x="720" y="169.57999999999993" as="sourcePoint"/>
                        <mxPoint x="800" y="169.57999999999993" as="targetPoint"/>
                    </mxGeometry>
                </mxCell>
                <mxCell id="28" value="1/2" style="ellipse;whiteSpace=wrap;html=1;fillColor=#ffe6cc;strokeColor=#d79b00;" parent="53" vertex="1">
                    <mxGeometry x="840" y="30" width="40" height="40" as="geometry"/>
                </mxCell>
                <mxCell id="29" value="2/1" style="ellipse;whiteSpace=wrap;html=1;fillColor=#ffe6cc;strokeColor=#d79b00;" parent="53" vertex="1">
                    <mxGeometry x="840" y="90" width="40" height="40" as="geometry"/>
                </mxCell>
                <mxCell id="30" value="1/2" style="ellipse;whiteSpace=wrap;html=1;fillColor=#ffe6cc;strokeColor=#d79b00;" parent="53" vertex="1">
                    <mxGeometry x="840" y="150" width="40" height="40" as="geometry"/>
                </mxCell>
                <mxCell id="31" value="2/1" style="ellipse;whiteSpace=wrap;html=1;fillColor=#ffe6cc;strokeColor=#d79b00;" parent="53" vertex="1">
                    <mxGeometry x="840" y="210" width="40" height="40" as="geometry"/>
                </mxCell>
                <mxCell id="32" value="1/3" style="ellipse;whiteSpace=wrap;html=1;fillColor=#ffe6cc;strokeColor=#d79b00;" parent="53" vertex="1">
                    <mxGeometry x="840" y="270" width="40" height="40" as="geometry"/>
                </mxCell>
                <mxCell id="33" value="1/1" style="ellipse;whiteSpace=wrap;html=1;fillColor=#dae8fc;strokeColor=#6c8ebf;" parent="53" vertex="1">
                    <mxGeometry x="990" y="90" width="40" height="40" as="geometry"/>
                </mxCell>
                <mxCell id="34" value="1/3" style="ellipse;whiteSpace=wrap;html=1;fillColor=#dae8fc;strokeColor=#6c8ebf;" parent="53" vertex="1">
                    <mxGeometry x="990" y="150" width="40" height="40" as="geometry"/>
                </mxCell>
                <mxCell id="35" value="3/3" style="ellipse;whiteSpace=wrap;html=1;fillColor=#dae8fc;strokeColor=#6c8ebf;" parent="53" vertex="1">
                    <mxGeometry x="990" y="210" width="40" height="40" as="geometry"/>
                </mxCell>
                <mxCell id="42" value="&lt;font style=&quot;font-size: 7px;&quot;&gt;输入 / 输出&lt;/font&gt;" style="ellipse;whiteSpace=wrap;html=1;fillColor=#f5f5f5;fontColor=#333333;strokeColor=#666666;fontSize=7;" parent="53" vertex="1">
                    <mxGeometry x="250" y="280" width="40" height="40" as="geometry"/>
                </mxCell>
                <mxCell id="48" style="edgeStyle=none;html=1;exitX=1;exitY=0.5;exitDx=0;exitDy=0;fontSize=7;fillColor=#f8cecc;strokeColor=#b85450;dashed=1;dashPattern=8 8;" parent="53" edge="1">
                    <mxGeometry relative="1" as="geometry">
                        <mxPoint x="110" y="134.8" as="targetPoint"/>
                        <mxPoint x="50" y="134.8" as="sourcePoint"/>
                    </mxGeometry>
                </mxCell>
                <mxCell id="49" style="edgeStyle=none;html=1;exitX=1;exitY=0.5;exitDx=0;exitDy=0;fontSize=7;fillColor=#f8cecc;strokeColor=#b85450;dashed=1;dashPattern=8 8;" parent="53" edge="1">
                    <mxGeometry relative="1" as="geometry">
                        <mxPoint x="110" y="194.79999999999995" as="targetPoint"/>
                        <mxPoint x="50" y="194.79999999999995" as="sourcePoint"/>
                    </mxGeometry>
                </mxCell>
                <mxCell id="50" style="edgeStyle=none;html=1;exitX=1;exitY=0.5;exitDx=0;exitDy=0;fontSize=7;fillColor=#f8cecc;strokeColor=#b85450;dashed=1;dashPattern=8 8;" parent="53" edge="1">
                    <mxGeometry relative="1" as="geometry">
                        <mxPoint x="110" y="254.79999999999995" as="targetPoint"/>
                        <mxPoint x="50" y="254.79999999999995" as="sourcePoint"/>
                    </mxGeometry>
                </mxCell>
                <mxCell id="54" value="&lt;font style=&quot;font-size: 30px;&quot;&gt;API级别匹配算法示意图&lt;/font&gt;" style="text;html=1;strokeColor=none;fillColor=none;align=center;verticalAlign=middle;whiteSpace=wrap;rounded=0;dashed=1;fontSize=23;" parent="1" vertex="1">
                    <mxGeometry x="630" y="50" width="390" height="30" as="geometry"/>
                </mxCell>
            </root>
        </mxGraphModel>
    </diagram>
</mxfile>